<?xml version="1.0" encoding="UTF-8" standalone="no"?>
<!-- Created with Inkscape (http://www.inkscape.org/) -->

<svg
   width="381.43872"
   height="616.08203"
   viewBox="0 0 366.99028 592.74559"
   version="1.1"
   id="svg1"
   xml:space="preserve"
   xmlns="http://www.w3.org/2000/svg"
   xmlns:svg="http://www.w3.org/2000/svg"><defs
     id="defs1" /><g
     id="layer1"
     transform="translate(-421.81436,-2546.7622)"><rect
       style="fill:none;fill-opacity:1;stroke:none;stroke-width:1.11774;stroke-dasharray:none;stroke-opacity:1"
       id="rect557"
       width="366.99026"
       height="592.74573"
       x="421.81436"
       y="2546.762" /><path
       style="fill:#fce1ac;fill-opacity:1;stroke:#000000;stroke-width:1.91273;stroke-opacity:1"
       d="m 588.00287,3128.1336 c -10.5243,-1.663 -20.29859,-3.7545 -26.54129,-7.8641 l 6.5534,-20.3155 -1.3107,-8.1918 4.9151,-9.1747 -2.9491,-14.0898 -11.1408,-50.4612 c -3.4187,-12.1579 0.6502,-28.9955 1.6384,-43.9078 l -1.6384,-75.3641 0.9831,-48.8228 5.5704,-32.4393 2.2936,-27.5242 -9.8301,-53.7379 -7.5364,21.6262 c -1.8574,22.9003 -8.7304,44.1287 -16.05581,65.2063 l -7.2087,17.3665 4.2597,14.0898 0.3277,27.1966 c -1.8892,0.073 -4.229,4.2009 -5.5704,-0.6553 l -0.983,-9.8301 h -4.5874 l 1.966,11.4684 10.1578,6.5534 0.6553,2.949 -11.1408,-1.6383 -7.53637,-7.5364 -5.89806,-8.5195 3.2767,-29.1625 2.94904,-51.4442 12.77909,-57.0146 5.8981,-31.784 1.31061,-29.4902 c 3.842,-5.041 3.1312,-8.7161 12.4515,-15.4005 l 17.0388,-3.6044 14.74519,-8.8471 15.7281,-13.1068 -3.2767,-7.5364 -3.2767,-13.7621 c -1.4118,-3.6114 -4.7907,-5.5017 -1.6383,-13.1068 -1.262,-7.2851 -0.7658,-15.0725 2.2937,-23.5923 4.8454,-6.5239 13.753,-10.0372 22.2815,-9.8301 11.2434,-2.7515 17.8468,5.3235 23.5923,15.4005 l 0.983,18.0219 c 2.8947,5.4503 0.5895,9.8606 -2.6214,14.0898 l -4.5874,20.3155 20.3156,14.7452 27.5242,12.4514 c 8.3733,6.7026 8.0475,12.5353 10.8132,18.6772 l 5.898,52.7548 13.4345,49.8059 1.6383,35.3883 3.6044,47.5121 c 0.1127,7.5364 -3.0759,15.0729 -8.5194,22.6093 l -13.7622,3.6043 -0.983,-3.932 8.8471,-3.9321 3.6044,-5.2427 0.6553,-9.8301 -3.932,0.983 -1.6384,13.4345 c -2.5223,0.3976 -5.1245,0.915 -5.2427,-2.2937 l -0.983,-12.7791 0.6554,-14.0898 4.2597,-17.3665 -12.1238,-26.2136 c -4.7425,-17.2573 -9.3242,-34.5145 -9.8301,-51.7718 l -6.8811,-23.5923 -8.8471,30.801 -1.6383,40.6311 6.5534,43.9077 c 1.6483,26.2156 1.438,52.0595 0,77.6578 l -1.3107,28.8349 1.966,30.4733 c 3.6703,11.9054 3.1669,23.8107 1.3107,35.7161 l -8.1918,27.5243 -4.915,19.3325 v 15.7281 l 1.966,11.7962 6.2257,21.2985 c -10.41,5.4116 -20.5819,9.6331 -29.1626,5.8981 l -1.3107,-17.0389 1.6384,-25.5582 1.966,-9.8301 2.2937,-21.6262 -4.915,-27.1967 1.6383,-41.614 c -4.5402,-12.4672 -7.03,-25.6179 -7.8641,-39.3204 -3.6582,-16.7127 -5.7059,-36.6464 -7.5364,-57.0146 l -3.932,-19.0049 -3.2767,0.9831 -3.9321,38.9927 -3.6043,31.1286 -5.5704,31.784 -4.5874,12.7791 v 20.6432 26.2136 l -3.6044,26.2136 4.9151,31.1287 1.3107,28.8349 z"
       id="path557" /><g
       id="g566"
       transform="translate(381.57557,2496.8813)"><g
         id="g563"
         transform="translate(3.6878699,-55.544871)"><path
           style="opacity:1;fill:#f21a1b;fill-opacity:1;stroke:#000000;stroke-width:1.91273;stroke-opacity:1"
           d="m 77.428897,202.75684 c -5.7735,-3.81214 -13.16721,-4.75776 -13.59831,-18.02185 2.64068,-9.86723 6.48822,-18.64253 18.18568,-20.31553 9.8301,-1.34333 19.660203,3.2578 29.490303,8.35558 l 12.45145,0.16384 c 9.25667,20.1608 1.94828,21.30244 0.49151,29.16262 l -13.1068,-0.49151 c -5.81819,6.02185 -13.351963,8.99376 -23.100733,8.02791 -3.8985,-1.26423 -7.77001,-2.6229 -10.8131,-6.88106 z"
           id="path558" /><path
           style="opacity:1;fill:none;fill-opacity:1;stroke:#000000;stroke-width:1.91273;stroke-opacity:1"
           d="m 77.835117,203.07877 c 0.0857,-4.68132 0.70928,-9.15865 5.2132,-12.16412 4.15927,-0.76639 8.00268,-1.00634 11.23733,-0.2317"
           id="path559" /><path
           style="opacity:1;fill:none;fill-opacity:1;stroke:#000000;stroke-width:1.91273;stroke-opacity:1"
           d="m 83.511717,191.49389 c -1.27652,-2.79444 -3.25045,-5.45812 -2.20114,-8.68866"
           id="path560" /><path
           style="opacity:1;fill:none;fill-opacity:1;stroke:#000000;stroke-width:1.91273;stroke-opacity:1"
           d="m 83.511717,191.14635 c 1.72778,-2.62623 2.83462,-5.92985 6.13997,-6.83509"
           id="path561" /><path
           style="opacity:1;fill:none;fill-opacity:1;stroke:#000000;stroke-width:1.91273;stroke-opacity:1"
           d="m 111.57161,172.84587 c 3.724,9.74542 2.75513,19.19753 -0.49151,28.50728"
           id="path562" /><path
           style="opacity:1;fill:#c65253;fill-opacity:1;stroke:#000000;stroke-width:1.91273;stroke-opacity:1"
           d="m 114.0958,185.5856 c 0.2317,-0.81094 -1.27434,-12.39582 -1.27434,-12.39582 l 11.23734,0.11585 c 1.73614,4.51969 3.0756,9.32021 4.51809,14.13355 z"
           id="path563" /></g><path
         style="opacity:1;fill:#000000;fill-opacity:1;stroke:none;stroke-width:0.363637;stroke-dasharray:none;stroke-opacity:1"
         d="m 129.42961,87.815533 c 0,0.06663 -0.3791,0.559357 -1.41383,0.567359 0,0 0,10e-7 0,10e-7 -0.692,0.0013 -1.58288,-0.251852 -2.38685,-0.290218 -2.83651,-0.237557 -7.16602,-0.321372 -12.79312,-0.720188 -1.50484,-0.105249 -2.79841,-0.222505 -4.39984,-0.350893 -1.51439,-0.120747 -3.16628,-0.2834 -4.66351,-0.306906 -3.17016,-0.06223 -6.632972,0.153568 -10.386538,0.194574 -3.386085,0.0466 -6.61256,-0.418217 -9.483871,0.03045 0,0 -0.0032,4.94e-4 -0.0032,4.93e-4 0.289795,-0.180405 -0.08813,0.197976 -1.284891,0.57573 -0.656291,0.19435 -1.380498,0.347575 -2.17288,0.419431 0.258977,-0.151937 0.03751,0.113895 -0.722405,0.3977 0,10e-7 -10e-7,0 -10e-7,0 -0.03462,-0.01591 -0.278299,0.208535 -0.798622,0.541954 -0.732363,0.413757 -1.519309,0.910708 -2.492075,1.396072 0,0 -7e-6,3e-6 -7e-6,3e-6 -0.694694,0.304478 -1.107961,0.392533 -1.191833,0.404539 -1.075296,0.468971 -2.003472,0.776781 -2.702768,1.151331 -1.155657,0.509619 -2.376938,1.939445 -3.880648,3.203887 0,0 -5e-6,5e-6 -5e-6,5e-6 -0.846283,0.715848 -1.319613,0.845897 -1.176629,0.791111 -0.388825,0.347785 -0.817716,1.207821 -1.646101,2.179603 -1.004379,1.118208 -1.913269,1.696081 -2.378524,2.222983 -1.017334,1.1049 -2.070013,2.7005 -3.009188,3.96596 -0.801066,0.1102 -1.671711,0.40689 -2.642378,0.72895 l 0,0 c 0,0 -1e-5,-1e-5 -1e-5,-1e-5 -0.08529,-0.0684 -0.170099,-0.12021 -0.263039,-0.20368 -0.06431,-0.0578 -0.09998,-0.13204 -0.146151,-0.19604 -0.248644,-0.34467 -0.498647,-0.64454 -0.760049,-0.90594 0.448142,0.2486 1.025353,0.35628 1.742714,0.34633 0.01517,0.001 0.0385,-3.5e-4 0.04854,0.0207 0.02275,0.0476 0.02211,0.0972 0.028,0.1443 0.143436,1.14712 0.160384,2.00445 0.235841,2.71172 -0.867747,1.49825 -1.775642,2.29467 -2.202156,3.07955 -0.47268,0.79439 -0.762877,1.97428 -1.32228,2.85849 -0.632462,1.03736 -1.242528,1.35549 -1.531808,1.67416 -0.276682,0.30479 -0.39205,0.56315 -0.547019,0.56315 -0.142544,0 -0.325804,-0.28087 -0.245921,-0.88502 0.07726,-0.58432 0.560033,-1.43605 0.788456,-2.12045 0.215592,-0.66577 0.168813,-1.62286 0.643738,-3.03955 0.469477,-1.30577 1.337399,-2.45165 1.729882,-3.47388 0.640553,-0.41526 1.327769,-0.68148 1.87558,-0.82787 0.02209,-0.006 0.05074,-0.0135 0.05583,-0.0185 0.0022,-0.002 -0.0088,0.0183 -0.01174,0.0361 0.612439,0.0866 1.115941,0.32062 1.487215,0.69063 -0.341569,-0.13487 -0.671882,-0.3066 -0.97973,-0.51242 -0.05718,-0.0382 -0.124289,-0.0692 -0.161663,-0.1191 -0.05404,-0.0722 -0.114326,-0.1816 -0.172517,-0.28037 0,0 -7e-6,-1e-5 -7e-6,-1e-5 l 0,0 c -0.197261,-0.53619 -0.446037,-1.31126 -0.572803,-2.2202 0.748682,-1.26697 1.689734,-2.99591 2.888871,-4.553462 0.879877,-1.087262 1.788322,-1.772717 2.208853,-2.364387 0.350205,-0.442533 0.735081,-1.328521 1.630599,-2.407783 0.867541,-0.859848 1.468352,-1.150363 1.444724,-1.174902 0,0 0,0 0,0 1.098641,-1.076402 2.511954,-2.745024 4.63877,-4.004853 1.190761,-0.643209 2.25336,-1.04223 3.195292,-1.470027 0.568504,-0.205666 0.848616,-0.245089 0.774177,-0.250798 0,0 -10e-7,0 -10e-7,0 0.599825,-0.300919 1.271826,-0.75007 2.095305,-1.225286 0.131598,-0.101043 0.49568,-0.399725 1.167389,-0.768725 0,0 7e-6,-4e-6 7e-6,-4e-6 0.277881,-0.23454 1.084453,-0.669782 2.513212,-0.910098 0.331251,-0.01317 0.711443,-0.106213 1.144902,-0.238788 -0.07102,0.04003 0.527821,-0.386787 1.991809,-0.734951 0,0 0.0042,-5.55e-4 0.0042,-5.55e-4 3.672726,-0.486209 7.360262,-0.01281 10.168975,0.0315 3.832263,0.04362 6.942578,-0.05837 10.584338,0.194574 1.75072,0.124546 3.45497,0.393559 4.93111,0.617503 1.43777,0.21512 3.0853,0.48902 4.35504,0.690717 6.16259,0.974397 9.23647,1.362542 12.76514,2.556511 1.11925,0.366524 1.70629,0.803509 2.20053,1.020462 0,0 1e-5,1e-6 1e-5,1e-6 0.54183,0.315967 1.20752,0.368676 1.20752,0.567359 z"
         id="path564"
         transform="translate(13.901856,-3.4754641)" /><path
         style="opacity:1;fill:#000000;fill-opacity:1;stroke:none;stroke-width:0.363637;stroke-dasharray:none;stroke-opacity:1"
         d="m 52.595357,108.43448 c -1.351491,0.53866 -3.136293,-1.72819 -4.335449,-4.53914 -0.201353,-0.47199 -0.37953,-0.93533 -0.532336,-1.36807 0.309149,0.44263 0.0042,0.0468 -0.468843,-1.04124 -0.31391,-2.518532 0.123782,-0.93724 0.14993,-0.74503 0,0 0,0 0,0 0.404721,0.50201 0.207437,0.25601 -0.113591,-0.54616 -0.378858,-1.105607 0.0061,-0.930003 0.236068,-0.591377 0,0 0,0 0,0 -0.653256,-0.268956 0.565359,-0.555529 0.728245,-0.593843 0,0 0,-10e-7 0,-10e-7 -1.494598,-1.192011 -0.374415,-1.001543 -0.297976,-1.001547 0.398672,-1.8e-5 0.803826,0.516974 -0.172399,-0.543545 0,-10e-7 -10e-7,-10e-7 -10e-7,-10e-7 0.52151,-0.141806 2.238665,-0.0781 1.992854,0.338365 -10e-7,0 -10e-7,0 -10e-7,0 0.569702,0.775099 0.805146,1.310907 0.699464,0.798815 -0.06424,-0.260026 0.173997,-0.292906 0.813198,0.844035 1e-6,10e-7 1e-6,10e-7 1e-6,10e-7 0.291817,1.499108 0.2043,1.817868 0.14993,0.645148 -0.250388,-0.477304 -0.169654,-0.712184 0.457947,0.34894 0.304084,0.47978 0.57727,0.99983 0.813095,1.55015 1.353747,3.15915 1.01615,5.99161 -0.120136,6.4445 z"
         id="path565"
         transform="translate(14.828647,2.7803713)" /><path
         style="opacity:1;fill:#000000;fill-opacity:1;stroke:none;stroke-width:0.363637;stroke-dasharray:none;stroke-opacity:1"
         d="m 52.595357,108.66618 c -0.662233,-0.87343 0.98362,-4.14667 5.712207,-5.36779 0,0 10e-7,0 10e-7,0 0.354169,-0.0791 0.656772,-0.12605 0.904568,-0.15515 0.401371,-0.0472 0.637875,-0.0462 0.720246,-0.0637 0,0 1e-6,0 1e-6,0 1.816399,-0.35496 3.472487,-0.51087 4.908448,-0.25197 1.371789,0.24732 2.119813,0.81828 2.119811,1.4364 -10e-7,0.60542 -0.695117,1.16549 -1.663163,1.72755 -0.891422,0.51757 -2.484896,1.3009 -4.283704,1.77386 0,0 -1e-6,0 -1e-6,0 -0.567858,0.13249 -0.999289,0.18088 -1.285202,0.20717 -0.173983,0.016 -0.283486,0.0231 -0.33375,0.0373 0,0 0,0 0,0 -3.097361,0.59646 -6.023984,1.67914 -6.799462,0.65635 z"
         id="path566"
         transform="translate(14.828647,2.7803713)" /></g></g></svg>
