<?xml version="1.0" encoding="UTF-8" standalone="no"?>
<!-- Created with Inkscape (http://www.inkscape.org/) -->

<svg
   width="213.17993"
   height="586.05859"
   viewBox="0 0 205.10493 563.8594"
   version="1.1"
   id="svg1"
   xml:space="preserve"
   xmlns="http://www.w3.org/2000/svg"
   xmlns:svg="http://www.w3.org/2000/svg"><defs
     id="defs1" /><g
     id="layer1"
     transform="translate(-2590.386,-2565.3442)"><rect
       style="fill:none;fill-opacity:1;stroke:none;stroke-width:1.11774;stroke-dasharray:none;stroke-opacity:1"
       id="rect705"
       width="366.99026"
       height="592.74573"
       x="2505.7949"
       y="2546.762" /><path
       style="fill:#fce1ac;fill-opacity:1;stroke:#000000;stroke-width:1.91273;stroke-opacity:1"
       d="m 2671.9834,3128.1336 c -10.5243,-1.663 -20.2986,-3.7545 -26.5413,-7.8641 l 6.5534,-20.3155 -1.3107,-8.1918 4.9151,-9.1747 -2.9491,-14.0898 -11.1408,-50.4612 c -3.4187,-12.1579 0.6502,-28.9955 1.6384,-43.9078 l -1.6384,-75.3641 0.9831,-48.8228 5.5704,-32.4393 2.2936,-27.5242 -9.8301,-53.7379 -7.5364,21.6262 c -1.8574,22.9003 -8.7304,44.1287 -16.0558,65.2063 l -7.2087,17.3665 4.2597,14.0898 0.3277,27.1966 c -1.8892,0.073 -4.229,4.2009 -5.5704,-0.6553 l -0.983,-9.8301 h -4.5874 l 1.966,11.4684 10.1578,6.5534 0.6553,2.949 -11.1408,-1.6383 -7.5363,-7.5364 -5.8981,-8.5195 3.2767,-29.1625 2.949,-51.4442 12.7791,-57.0146 5.8981,-31.784 1.3106,-29.4902 c 3.842,-5.041 3.1312,-8.7161 12.4515,-15.4005 l 17.0388,-3.6044 14.7452,-8.8471 15.7281,-13.1068 -3.2767,-7.5364 -3.2767,-13.7621 c -1.4118,-3.6114 -4.7907,-5.5017 -1.6383,-13.1068 -1.262,-7.2851 -0.7658,-15.0725 2.2937,-23.5923 4.8454,-6.5239 13.753,-10.0372 22.2815,-9.8301 11.2434,-2.7515 17.8468,5.3235 23.5923,15.4005 l 0.983,18.0219 c 2.8947,5.4503 0.5895,9.8606 -2.6214,14.0898 l -4.5874,20.3155 20.3156,14.7452 27.5242,12.4514 c 8.3733,6.7026 8.0475,12.5353 10.8132,18.6772 l 5.898,52.7548 13.4345,49.8059 1.6383,35.3883 3.6044,47.5121 c 0.1127,7.5364 -3.0759,15.0729 -8.5194,22.6093 l -13.7622,3.6043 -0.983,-3.932 8.8471,-3.9321 3.6044,-5.2427 0.6553,-9.8301 -3.932,0.983 -1.6384,13.4345 c -2.5223,0.3976 -5.1245,0.915 -5.2427,-2.2937 l -0.983,-12.7791 0.6554,-14.0898 4.2597,-17.3665 -12.1238,-26.2136 c -4.7425,-17.2573 -9.3242,-34.5145 -9.8301,-51.7718 l -6.8811,-23.5923 -8.8471,30.801 -1.6383,40.6311 6.5534,43.9077 c 1.6483,26.2156 1.438,52.0595 0,77.6578 l -1.3107,28.8349 1.966,30.4733 c 3.6703,11.9054 3.1669,23.8107 1.3107,35.7161 l -8.1918,27.5243 -4.915,19.3325 v 15.7281 l 1.966,11.7962 6.2257,21.2985 c -10.41,5.4116 -20.5819,9.6331 -29.1626,5.8981 l -1.3107,-17.0389 1.6384,-25.5582 1.966,-9.8301 2.2937,-21.6262 -4.915,-27.1967 1.6383,-41.614 c -4.5402,-12.4672 -7.03,-25.6179 -7.8641,-39.3204 -3.6582,-16.7127 -5.7059,-36.6464 -7.5364,-57.0146 l -3.932,-19.0049 -3.2767,0.9831 -3.9321,38.9927 -3.6043,31.1286 -5.5704,31.784 -4.5874,12.7791 v 20.6432 26.2136 l -3.6044,26.2136 4.9151,31.1287 1.3107,28.8349 z"
       id="path705" /><g
       id="g731"
       transform="translate(1597.4976,2485.8477)"><circle
         style="fill:#3a97cf;fill-opacity:1;stroke:#000000;stroke-width:1.29455;stroke-dasharray:none;stroke-opacity:1"
         id="circle729"
         cx="1095.2618"
         cy="345.60233"
         r="19.660194" /><g
         id="g730"><circle
           style="fill:#e5cc24;fill-opacity:1;stroke:none;stroke-width:0.703744;stroke-dasharray:none;stroke-opacity:1"
           id="circle730"
           cx="1095.2618"
           cy="345.60233"
           r="10.687693" /></g></g></g></svg>
